<svg width="177" height="38" viewBox="0 0 177 38" fill="none" xmlns="http://www.w3.org/2000/svg">
<path d="M12.08 33.56C10.5067 33.56 8.97333 33.4267 7.48 33.16C6.01333 32.8933 4.68 32.5333 3.48 32.08C2.28 31.6 1.25333 31.08 0.4 30.52L3.56 24.64C4.49333 25.2267 5.46667 25.7333 6.48 26.16C7.52 26.56 8.57333 26.8667 9.64 27.08C10.7333 27.2933 11.8133 27.4 12.88 27.4C13.8933 27.4 14.7467 27.3067 15.44 27.12C16.16 26.9067 16.7067 26.6133 17.08 26.24C17.48 25.8667 17.68 25.4267 17.68 24.92C17.68 24.36 17.4267 23.92 16.92 23.6C16.44 23.2533 15.7867 22.96 14.96 22.72C14.16 22.48 13.28 22.24 12.32 22C11.36 21.7333 10.3867 21.4267 9.4 21.08C8.44 20.7067 7.54667 20.2533 6.72 19.72C5.92 19.16 5.26667 18.4533 4.76 17.6C4.28 16.7467 4.04 15.6933 4.04 14.44C4.04 12.4133 4.58667 10.6533 5.68 9.16C6.8 7.66667 8.36 6.50667 10.36 5.68C12.3867 4.85333 14.7733 4.44 17.52 4.44C19.4933 4.44 21.3467 4.65333 23.08 5.08C24.84 5.50667 26.3467 6.10666 27.6 6.88L24.68 12.72C23.5867 12.0267 22.3867 11.5067 21.08 11.16C19.7733 10.7867 18.4267 10.6 17.04 10.6C15.9467 10.6 15.0267 10.72 14.28 10.96C13.5333 11.2 12.96 11.5333 12.56 11.96C12.1867 12.36 11.9867 12.8133 11.96 13.32C11.96 13.8533 12.2 14.2933 12.68 14.64C13.1867 14.9867 13.84 15.28 14.64 15.52C15.4667 15.76 16.36 16.0133 17.32 16.28C18.28 16.52 19.24 16.8133 20.2 17.16C21.1867 17.48 22.08 17.92 22.88 18.48C23.7067 19.0133 24.36 19.6933 24.84 20.52C25.3467 21.3467 25.6 22.3733 25.6 23.6C25.6 25.6 25.04 27.3467 23.92 28.84C22.8267 30.3333 21.2667 31.4933 19.24 32.32C17.2133 33.1467 14.8267 33.56 12.08 33.56ZM8.88 37.8L9.96 32.36H14.76L13.68 37.8H8.88ZM15.28 5.88L16.4 0.199998H21.2L20.04 5.88H15.28ZM27.5775 33L33.1775 5H47.3375C50.5108 5 52.9242 5.57333 54.5775 6.72C56.2308 7.84 57.0575 9.45333 57.0575 11.56C57.0575 13.2933 56.5775 14.76 55.6175 15.96C54.6575 17.16 53.3642 18.08 51.7375 18.72C50.1108 19.3333 48.2842 19.64 46.2575 19.64L47.3775 17.72C49.9642 17.72 52.0175 18.28 53.5375 19.4C55.0575 20.52 55.8175 22.0933 55.8175 24.12C55.8175 26.1467 55.2442 27.8133 54.0975 29.12C52.9775 30.4267 51.4442 31.4 49.4975 32.04C47.5775 32.68 45.4042 33 42.9775 33H27.5775ZM36.5375 27.28H43.4175C44.8042 27.28 45.8975 27 46.6975 26.44C47.5242 25.88 47.9375 25.0533 47.9375 23.96C47.9375 23.1333 47.6308 22.5333 47.0175 22.16C46.4042 21.7867 45.6175 21.6 44.6575 21.6H37.0175L38.0975 16.12H44.4575C45.3908 16.12 46.1775 16 46.8175 15.76C47.4842 15.52 47.9775 15.16 48.2975 14.68C48.6175 14.2 48.7775 13.6133 48.7775 12.92C48.7775 12.1467 48.4842 11.5867 47.8975 11.24C47.3108 10.8933 46.4975 10.72 45.4575 10.72H39.8575L36.5375 27.28ZM58.3197 33L63.9197 5H76.0797C79.013 5 81.5197 5.48 83.5997 6.44C85.7064 7.4 87.3197 8.76 88.4397 10.52C89.5597 12.2533 90.1197 14.3333 90.1197 16.76C90.1197 19.24 89.693 21.48 88.8397 23.48C87.9864 25.4533 86.7864 27.16 85.2397 28.6C83.693 30.0133 81.853 31.1067 79.7197 31.88C77.5864 32.6267 75.2264 33 72.6397 33H58.3197ZM67.5197 26.68H72.8797C74.8797 26.68 76.5597 26.2667 77.9197 25.44C79.2797 24.6133 80.3197 23.4933 81.0397 22.08C81.7597 20.64 82.1197 19.0267 82.1197 17.24C82.1197 15.9867 81.853 14.92 81.3197 14.04C80.813 13.16 80.0397 12.4933 78.9997 12.04C77.9864 11.56 76.7197 11.32 75.1997 11.32H70.5597L67.5197 26.68ZM105.007 33.56C102.207 33.56 99.8599 33.0267 97.9666 31.96C96.0999 30.8667 94.7799 29.3467 94.0066 27.4C93.2332 25.4267 93.0999 23.1333 93.6066 20.52L96.7266 5H104.647L101.567 20.4C101.353 21.52 101.287 22.4933 101.367 23.32C101.447 24.1467 101.673 24.84 102.047 25.4C102.447 25.96 102.967 26.3733 103.607 26.64C104.273 26.88 105.06 27 105.967 27C107.06 27 108.007 26.7867 108.807 26.36C109.633 25.9067 110.313 25.2 110.847 24.24C111.407 23.2533 111.833 21.9733 112.127 20.4L115.207 5H123.007L119.847 20.88C119.02 25.04 117.367 28.2 114.887 30.36C112.407 32.4933 109.113 33.56 105.007 33.56ZM133.252 33.56C131.652 33.56 130.119 33.4267 128.652 33.16C127.185 32.92 125.852 32.5733 124.652 32.12C123.452 31.64 122.425 31.12 121.572 30.56L124.692 24.64C125.652 25.2267 126.639 25.7333 127.652 26.16C128.692 26.56 129.745 26.8667 130.812 27.08C131.879 27.2933 132.945 27.4 134.012 27.4C135.025 27.4 135.892 27.3067 136.612 27.12C137.332 26.9067 137.879 26.6133 138.252 26.24C138.625 25.8667 138.812 25.4267 138.812 24.92C138.812 24.36 138.559 23.92 138.052 23.6C137.572 23.2533 136.932 22.96 136.132 22.72C135.332 22.48 134.439 22.24 133.452 22C132.492 21.7333 131.519 21.4267 130.532 21.08C129.572 20.7067 128.692 20.2533 127.892 19.72C127.092 19.16 126.439 18.4533 125.932 17.6C125.452 16.7467 125.212 15.6933 125.212 14.44C125.212 12.4133 125.759 10.6533 126.852 9.16C127.945 7.66667 129.492 6.50667 131.492 5.68C133.519 4.85333 135.905 4.44 138.652 4.44C140.652 4.44 142.519 4.65333 144.252 5.08C145.985 5.48 147.479 6.06667 148.732 6.84L145.852 12.72C144.759 12.0267 143.545 11.5067 142.212 11.16C140.905 10.7867 139.559 10.6 138.172 10.6C137.105 10.6 136.185 10.72 135.412 10.96C134.665 11.2 134.092 11.5333 133.692 11.96C133.319 12.36 133.132 12.8133 133.132 13.32C133.132 13.8533 133.372 14.2933 133.852 14.64C134.332 14.9867 134.972 15.28 135.772 15.52C136.599 15.76 137.492 16.0133 138.452 16.28C139.439 16.52 140.412 16.8133 141.372 17.16C142.332 17.48 143.225 17.92 144.052 18.48C144.879 19.0133 145.532 19.6933 146.012 20.52C146.492 21.3467 146.732 22.3733 146.732 23.6C146.732 25.6 146.185 27.3467 145.092 28.84C143.999 30.3333 142.439 31.4933 140.412 32.32C138.385 33.1467 135.999 33.56 133.252 33.56ZM154.24 33L158.6 11.28H150L151.28 5H176.36L175.08 11.28H166.52L162.16 33H154.24Z" fill="#D9D9D9"/>
<path d="M7.48 33.16L7.12223 35.1278L7.12842 35.1289L7.48 33.16ZM3.48 32.08L2.73722 33.937L2.75514 33.9441L2.7732 33.9509L3.48 32.08ZM0.4 30.52L-1.36171 29.5732L-2.22895 31.187L-0.697313 32.1921L0.4 30.52ZM3.56 24.64L4.62434 22.9467L2.81177 21.8074L1.79829 23.6932L3.56 24.64ZM6.48 26.16L5.70389 28.0033L5.73278 28.0154L5.76204 28.0267L6.48 26.16ZM9.64 27.08L9.24776 29.0412L9.25698 29.043L9.64 27.08ZM15.44 27.12L15.9599 29.0512L15.9841 29.0447L16.0082 29.0376L15.44 27.12ZM17.08 26.24L15.7154 24.7779L15.6902 24.8014L15.6658 24.8258L17.08 26.24ZM16.92 23.6L15.749 25.2214L15.7994 25.2578L15.852 25.291L16.92 23.6ZM14.96 22.72L14.3853 24.6357L14.3938 24.6382L14.4024 24.6407L14.96 22.72ZM12.32 22L11.7847 23.927L11.8097 23.934L11.8349 23.9403L12.32 22ZM9.4 21.08L8.67511 22.944L8.70588 22.956L8.73703 22.9669L9.4 21.08ZM6.72 19.72L5.57308 21.3585L5.60401 21.3801L5.63575 21.4006L6.72 19.72ZM4.76 17.6L3.01685 18.5805L3.02833 18.6009L3.04029 18.6211L4.76 17.6ZM5.68 9.16L4.08 7.96L4.07308 7.96922L4.06627 7.97852L5.68 9.16ZM10.36 5.68L9.60462 3.82811L9.59602 3.83167L10.36 5.68ZM23.08 5.08L22.602 7.02204L22.6088 7.0237L23.08 5.08ZM27.6 6.88L29.3889 7.77442L30.2069 6.13841L28.6502 5.17793L27.6 6.88ZM24.68 12.72L23.6089 14.409L25.4787 15.5947L26.4689 13.6144L24.68 12.72ZM21.08 11.16L20.5306 13.083L20.5488 13.0883L20.5671 13.0931L21.08 11.16ZM14.28 10.96L14.892 12.8641H14.892L14.28 10.96ZM12.56 11.96L11.1009 10.5921L11.0979 10.5954L12.56 11.96ZM11.96 13.32L9.96276 13.2149L9.96 13.2674V13.32H11.96ZM12.68 14.64L11.509 16.2614L11.5296 16.2762L11.5506 16.2906L12.68 14.64ZM14.64 15.52L14.0653 17.4357L14.0738 17.4382L14.0824 17.4407L14.64 15.52ZM17.32 16.28L16.7847 18.207L16.8097 18.214L16.8349 18.2203L17.32 16.28ZM20.2 17.16L19.5207 19.0411L19.5517 19.0523L19.583 19.0624L20.2 17.16ZM22.88 18.48L21.7331 20.1185L21.764 20.1401L21.7957 20.1606L22.88 18.48ZM24.84 20.52L23.1104 21.5243L23.1224 21.5448L23.1348 21.5651L24.84 20.52ZM23.92 28.84L22.32 27.64L22.3131 27.6492L22.3063 27.6585L23.92 28.84ZM19.24 32.32L19.9954 34.1719L19.24 32.32ZM8.88 37.8L6.91829 37.4105L6.44391 39.8H8.88V37.8ZM9.96 32.36V30.36H8.31803L7.99829 31.9705L9.96 32.36ZM14.76 32.36L16.7217 32.7495L17.1961 30.36H14.76V32.36ZM13.68 37.8V39.8H15.322L15.6417 38.1895L13.68 37.8ZM15.28 5.88L13.3178 5.49308L12.8471 7.88H15.28V5.88ZM16.4 0.199998V-1.8H14.7559L14.4378 -0.186918L16.4 0.199998ZM21.2 0.199998L23.1596 0.600188L23.6497 -1.8H21.2V0.199998ZM20.04 5.88V7.88H21.6728L21.9996 6.28019L20.04 5.88ZM12.08 31.56C10.6202 31.56 9.20465 31.4363 7.83158 31.1911L7.12842 35.1289C8.74202 35.417 10.3932 35.56 12.08 35.56V31.56ZM7.83777 31.1923C6.4715 30.9438 5.25719 30.6134 4.1868 30.2091L2.7732 33.9509C4.10281 34.4532 5.55516 34.8428 7.12223 35.1277L7.83777 31.1923ZM4.22278 30.223C3.11574 29.7802 2.21405 29.3183 1.49731 28.8479L-0.697313 32.1921C0.292618 32.8417 1.44426 33.4198 2.73722 33.937L4.22278 30.223ZM2.16171 31.4668L5.32171 25.5868L1.79829 23.6932L-1.36171 29.5732L2.16171 31.4668ZM2.49566 26.3333C3.5206 26.9775 4.5903 27.5344 5.70389 28.0033L7.25611 24.3167C6.34303 23.9323 5.46607 23.4758 4.62434 22.9467L2.49566 26.3333ZM5.76204 28.0267C6.90518 28.4664 8.06738 28.8051 9.24777 29.0412L10.0322 25.1188C9.07929 24.9282 8.13483 24.6536 7.19796 24.2933L5.76204 28.0267ZM9.25698 29.043C10.4709 29.2799 11.6792 29.4 12.88 29.4V25.4C11.9475 25.4 10.9957 25.3068 10.023 25.117L9.25698 29.043ZM12.88 29.4C14.0031 29.4 15.0435 29.298 15.9599 29.0512L14.9201 25.1888C14.4499 25.3154 13.7836 25.4 12.88 25.4V29.4ZM16.0082 29.0376C16.9209 28.7672 17.8067 28.3418 18.4942 27.6542L15.6658 24.8258C15.6067 24.8849 15.3991 25.0462 14.8718 25.2024L16.0082 29.0376ZM18.4446 27.7021C19.2137 26.9843 19.68 26.0286 19.68 24.92H15.68C15.68 24.9143 15.6807 24.8979 15.6857 24.8741C15.6908 24.8499 15.6989 24.8252 15.7093 24.8024C15.7316 24.7534 15.7484 24.7471 15.7154 24.7779L18.4446 27.7021ZM19.68 24.92C19.68 23.6179 19.026 22.5646 17.988 21.909L15.852 25.291C15.8801 25.3087 15.8191 25.2762 15.7568 25.1679C15.6911 25.0538 15.68 24.9533 15.68 24.92H19.68ZM18.091 21.9786C17.3615 21.4518 16.4735 21.0768 15.5176 20.7993L14.4024 24.6407C15.0998 24.8432 15.5185 25.0549 15.749 25.2214L18.091 21.9786ZM15.5347 20.8043C14.7002 20.554 13.7898 20.3059 12.8051 20.0597L11.8349 23.9403C12.7702 24.1741 13.6198 24.406 14.3853 24.6357L15.5347 20.8043ZM12.8553 20.073C11.9403 19.8188 11.0096 19.5257 10.063 19.1931L8.73703 22.9669C9.76373 23.3277 10.7797 23.6479 11.7847 23.927L12.8553 20.073ZM10.1249 19.216C9.28467 18.8892 8.51244 18.4963 7.80425 18.0394L5.63575 21.4006C6.5809 22.0104 7.59533 22.5241 8.67511 22.944L10.1249 19.216ZM7.86692 18.0815C7.30338 17.6871 6.84386 17.1922 6.47971 16.5789L3.04029 18.6211C3.68947 19.7144 4.53662 20.6329 5.57308 21.3585L7.86692 18.0815ZM6.50315 16.6195C6.23234 16.138 6.04 15.444 6.04 14.44H2.04C2.04 15.9427 2.32766 17.3553 3.01685 18.5805L6.50315 16.6195ZM6.04 14.44C6.04 12.7956 6.47539 11.4592 7.29373 10.3415L4.06627 7.97852C2.69794 9.84746 2.04 12.031 2.04 14.44H6.04ZM7.28 10.36C8.15224 9.19701 9.40218 8.24001 11.124 7.52833L9.59602 3.83167C7.31782 4.77332 5.44776 6.13632 4.08 7.96L7.28 10.36ZM11.1154 7.53187C12.8496 6.82448 14.9687 6.44 17.52 6.44V2.44C14.578 2.44 11.9237 2.88218 9.60463 3.82813L11.1154 7.53187ZM17.52 6.44C19.349 6.44 21.0405 6.63767 22.602 7.02203L23.558 3.13797C21.6528 2.66899 19.6377 2.44 17.52 2.44V6.44ZM22.6088 7.0237C24.2094 7.41173 25.5112 7.94124 26.5498 8.58207L28.6502 5.17793C27.1821 4.27209 25.4706 3.6016 23.5512 3.1363L22.6088 7.0237ZM25.8111 5.98557L22.8911 11.8256L26.4689 13.6144L29.3889 7.77442L25.8111 5.98557ZM25.7511 11.031C24.4777 10.2235 23.0882 9.62359 21.5929 9.22688L20.5671 13.0931C21.6851 13.3897 22.6956 13.8298 23.6089 14.409L25.7511 11.031ZM21.6294 9.23695C20.1405 8.81153 18.6087 8.6 17.04 8.6V12.6C18.2447 12.6 19.4062 12.7618 20.5306 13.083L21.6294 9.23695ZM17.04 8.6C15.8143 8.6 14.6733 8.73282 13.668 9.05594L14.892 12.8641C15.3801 12.7072 16.0791 12.6 17.04 12.6V8.6ZM13.668 9.05594C12.704 9.36578 11.799 9.84749 11.1009 10.5921L14.0191 13.3279C14.121 13.2192 14.3626 13.0342 14.892 12.8641L13.668 9.05594ZM11.0979 10.5954C10.4307 11.3102 10.0162 12.2003 9.96276 13.2149L13.9572 13.4251C13.9578 13.4145 13.9589 13.4099 13.959 13.4096C13.959 13.4094 13.9591 13.4091 13.9598 13.4073C13.9604 13.4059 13.9725 13.3778 14.0221 13.3246L11.0979 10.5954ZM9.96 13.32C9.96 14.5734 10.5749 15.5867 11.509 16.2614L13.851 13.0186C13.8095 12.9887 13.8492 13.0068 13.8958 13.0923C13.9181 13.1333 13.9357 13.1784 13.9468 13.2237C13.9579 13.2684 13.96 13.3022 13.96 13.32H9.96ZM11.5506 16.2906C12.2763 16.7871 13.1339 17.1562 14.0653 17.4357L15.2147 13.6043C14.5461 13.4038 14.0971 13.1862 13.8094 12.9894L11.5506 16.2906ZM14.0824 17.4407C14.9175 17.6832 15.8184 17.9386 16.7847 18.207L17.8553 14.353C16.9016 14.0881 16.0158 13.8368 15.1976 13.5993L14.0824 17.4407ZM16.8349 18.2203C17.7272 18.4434 18.6224 18.7167 19.5207 19.0411L20.8793 15.2789C19.8576 14.9099 18.8328 14.5966 17.8051 14.3397L16.8349 18.2203ZM19.583 19.0624C20.3927 19.325 21.1055 19.6791 21.7331 20.1185L24.0269 16.8415C23.0545 16.1609 21.9807 15.635 20.817 15.2576L19.583 19.0624ZM21.7957 20.1606C22.3649 20.5278 22.7938 20.979 23.1104 21.5243L26.5696 19.5157C25.9262 18.4077 25.0484 17.4989 23.9643 16.7994L21.7957 20.1606ZM23.1348 21.5651C23.4037 22.0039 23.6 22.6454 23.6 23.6H27.6C27.6 22.1012 27.2896 20.6895 26.5452 19.4749L23.1348 21.5651ZM23.6 23.6C23.6 25.2001 23.1613 26.5183 22.32 27.64L25.52 30.04C26.9187 28.1751 27.6 25.9999 27.6 23.6H23.6ZM22.3063 27.6585C21.4687 28.8026 20.232 29.7554 18.4846 30.4681L19.9954 34.1719C22.3014 33.2313 24.1847 31.8641 25.5337 30.0215L22.3063 27.6585ZM18.4846 30.4681C16.7504 31.1755 14.6313 31.56 12.08 31.56V35.56C15.022 35.56 17.6763 35.1178 19.9954 34.1719L18.4846 30.4681ZM10.8417 38.1895L11.9217 32.7495L7.99829 31.9705L6.91829 37.4105L10.8417 38.1895ZM9.96 34.36H14.76V30.36H9.96V34.36ZM12.7983 31.9705L11.7183 37.4105L15.6417 38.1895L16.7217 32.7495L12.7983 31.9705ZM13.68 35.8H8.88V39.8H13.68V35.8ZM17.2422 6.26691L18.3622 0.586914L14.4378 -0.186918L13.3178 5.49308L17.2422 6.26691ZM16.4 2.2H21.2V-1.8H16.4V2.2ZM19.2404 -0.200192L18.0804 5.47981L21.9996 6.28019L23.1596 0.600188L19.2404 -0.200192ZM20.04 3.88H15.28V7.88H20.04V3.88ZM27.5775 33L25.6163 32.6078L25.1379 35H27.5775V33ZM33.1775 5V3H31.5379L31.2163 4.60777L33.1775 5ZM54.5775 6.72L53.4377 8.36343L53.4467 8.36968L53.4558 8.37584L54.5775 6.72ZM55.6175 15.96L54.0558 14.7106V14.7106L55.6175 15.96ZM51.7375 18.72L52.4431 20.5914L52.4565 20.5864L52.4697 20.5811L51.7375 18.72ZM46.2575 19.64L44.5299 18.6323L42.7754 21.64H46.2575V19.64ZM47.3775 17.72V15.72H46.2288L45.6499 16.7123L47.3775 17.72ZM53.5375 19.4L52.3511 21.0101L52.3511 21.0101L53.5375 19.4ZM54.0975 29.12L52.5942 27.8008L52.5866 27.8096L52.579 27.8184L54.0975 29.12ZM49.4975 32.04L48.8729 30.14L48.865 30.1426L49.4975 32.04ZM36.5375 27.28L34.5765 26.8869L34.0967 29.28H36.5375V27.28ZM46.6975 26.44L45.5758 24.7842L45.5631 24.7928L45.5506 24.8015L46.6975 26.44ZM47.0175 22.16L48.0574 20.4516V20.4516L47.0175 22.16ZM37.0175 21.6L35.0552 21.2133L34.5849 23.6H37.0175V21.6ZM38.0975 16.12V14.12H36.4532L36.1352 15.7333L38.0975 16.12ZM46.8175 15.76L46.1401 13.8782L46.1276 13.8827L46.1153 13.8873L46.8175 15.76ZM48.2975 14.68L49.9616 15.7894V15.7894L48.2975 14.68ZM47.8975 11.24L48.915 9.51815L48.915 9.51815L47.8975 11.24ZM39.8575 10.72V8.72H38.2187L37.8965 10.3269L39.8575 10.72ZM29.5387 33.3922L35.1387 5.39223L31.2163 4.60777L25.6163 32.6078L29.5387 33.3922ZM33.1775 7H47.3375V3H33.1775V7ZM47.3375 7C50.3206 7 52.2616 7.54777 53.4377 8.36343L55.7173 5.07657C53.5867 3.59889 50.7011 3 47.3375 3V7ZM53.4558 8.37584C54.5249 9.10006 55.0575 10.0734 55.0575 11.56H59.0575C59.0575 8.83324 57.9368 6.57994 55.6992 5.06416L53.4558 8.37584ZM55.0575 11.56C55.0575 12.9006 54.696 13.9104 54.0558 14.7106L57.1792 17.2094C58.459 15.6096 59.0575 13.6861 59.0575 11.56H55.0575ZM54.0558 14.7106C53.3427 15.602 52.3522 16.3289 51.0053 16.8589L52.4697 20.5811C54.3761 19.8311 55.9723 18.718 57.1792 17.2094L54.0558 14.7106ZM51.0319 16.8486C49.6648 17.3641 48.0824 17.64 46.2575 17.64V21.64C48.4859 21.64 50.5569 21.3026 52.4431 20.5914L51.0319 16.8486ZM47.9851 20.6477L49.1051 18.7277L45.6499 16.7123L44.5299 18.6323L47.9851 20.6477ZM47.3775 19.72C49.6923 19.72 51.2816 20.222 52.3511 21.0101L54.7239 17.7899C52.7534 16.338 50.2361 15.72 47.3775 15.72V19.72ZM52.3511 21.0101C53.3172 21.722 53.8175 22.6744 53.8175 24.12H57.8175C57.8175 21.5122 56.7978 19.318 54.7239 17.7899L52.3511 21.0101ZM53.8175 24.12C53.8175 25.7465 53.3686 26.9184 52.5942 27.8008L55.6007 30.4392C57.1197 28.7083 57.8175 26.5469 57.8175 24.12H53.8175ZM52.579 27.8184C51.7386 28.7989 50.5392 29.5922 48.8729 30.14L50.1221 33.94C52.3491 33.2078 54.2164 32.0544 55.616 30.4216L52.579 27.8184ZM48.865 30.1426C47.1849 30.7027 45.2307 31 42.9775 31V35C45.5777 35 47.9701 34.6573 50.13 33.9374L48.865 30.1426ZM42.9775 31H27.5775V35H42.9775V31ZM36.5375 29.28H43.4175V25.28H36.5375V29.28ZM43.4175 29.28C45.0485 29.28 46.594 28.9538 47.8444 28.0785L45.5506 24.8015C45.201 25.0462 44.5598 25.28 43.4175 25.28V29.28ZM47.8192 28.0958C49.2539 27.124 49.9375 25.6426 49.9375 23.96H45.9375C45.9375 24.4641 45.7945 24.636 45.5758 24.7842L47.8192 28.0958ZM49.9375 23.96C49.9375 22.5604 49.3665 21.2485 48.0574 20.4516L45.9776 23.8684C45.9897 23.8758 45.9824 23.8731 45.9665 23.8563C45.9501 23.8389 45.936 23.8185 45.9266 23.8002C45.9069 23.7616 45.9375 23.7925 45.9375 23.96H49.9375ZM48.0574 20.4516C47.042 19.8336 45.8643 19.6 44.6575 19.6V23.6C45.3707 23.6 45.7663 23.7398 45.9776 23.8684L48.0574 20.4516ZM44.6575 19.6H37.0175V23.6H44.6575V19.6ZM38.9798 21.9867L40.0598 16.5067L36.1352 15.7333L35.0552 21.2133L38.9798 21.9867ZM38.0975 18.12H44.4575V14.12H38.0975V18.12ZM44.4575 18.12C45.5489 18.12 46.5896 17.9815 47.5197 17.6327L46.1153 13.8873C45.7654 14.0185 45.2328 14.12 44.4575 14.12V18.12ZM47.4949 17.6418C48.471 17.2904 49.354 16.7008 49.9616 15.7894L46.6334 13.5706C46.601 13.6192 46.4974 13.7496 46.1401 13.8782L47.4949 17.6418ZM49.9616 15.7894C50.5415 14.9195 50.7775 13.9273 50.7775 12.92H46.7775C46.7775 13.2993 46.6935 13.4805 46.6334 13.5706L49.9616 15.7894ZM50.7775 12.92C50.7775 11.5534 50.2028 10.2791 48.915 9.51815L46.88 12.9619C46.8854 12.965 46.8706 12.957 46.8473 12.9329C46.8233 12.9082 46.8017 12.8782 46.7858 12.848C46.7705 12.8187 46.7677 12.8027 46.7692 12.8097C46.771 12.8181 46.7775 12.8524 46.7775 12.92H50.7775ZM48.915 9.51815C47.8989 8.91776 46.6819 8.72 45.4575 8.72V12.72C46.3131 12.72 46.7228 12.8689 46.88 12.9619L48.915 9.51815ZM45.4575 8.72H39.8575V12.72H45.4575V8.72ZM37.8965 10.3269L34.5765 26.8869L38.4985 27.6731L41.8185 11.1131L37.8965 10.3269ZM58.3197 33L56.3585 32.6078L55.8801 35H58.3197V33ZM63.9197 5V3H62.2801L61.9585 4.60777L63.9197 5ZM83.5997 6.44L82.7616 8.25594L82.7703 8.25994L83.5997 6.44ZM88.4397 10.52L86.7523 11.5938L86.7599 11.6054L88.4397 10.52ZM88.8397 23.48L90.6754 24.2738L90.6792 24.2649L88.8397 23.48ZM85.2397 28.6L86.5888 30.0764L86.5957 30.0701L86.6025 30.0638L85.2397 28.6ZM79.7197 31.88L80.3804 33.7677L80.3909 33.7641L80.4013 33.7603L79.7197 31.88ZM67.5197 26.68L65.5577 26.2917L65.0851 28.68H67.5197V26.68ZM77.9197 25.44L78.9585 27.149L77.9197 25.44ZM81.0397 22.08L82.8218 22.9879L82.8252 22.9812L82.8285 22.9744L81.0397 22.08ZM81.3197 14.04L79.5864 15.0379L79.5976 15.0574L79.6093 15.0766L81.3197 14.04ZM78.9997 12.04L78.1435 13.8475L78.1718 13.8609L78.2005 13.8734L78.9997 12.04ZM70.5597 11.32V9.32H68.9167L68.5977 10.9317L70.5597 11.32ZM60.2808 33.3922L65.8809 5.39223L61.9585 4.60777L56.3585 32.6078L60.2808 33.3922ZM63.9197 7H76.0797V3H63.9197V7ZM76.0797 7C78.8019 7 81.0072 7.44619 82.7616 8.25592L84.4378 4.62408C82.0322 3.51381 79.2242 3 76.0797 3V7ZM82.7703 8.25994C84.5649 9.07771 85.8626 10.1955 86.7524 11.5938L90.127 9.44625C88.7768 7.3245 86.8478 5.72229 84.429 4.62006L82.7703 8.25994ZM86.7599 11.6054C87.6364 12.9619 88.1197 14.6495 88.1197 16.76H92.1197C92.1197 14.0172 91.483 11.5448 90.1195 9.43457L86.7599 11.6054ZM88.1197 16.76C88.1197 19.008 87.7337 20.9757 87.0001 22.6951L90.6792 24.2649C91.6523 21.9843 92.1197 19.472 92.1197 16.76H88.1197ZM87.004 22.6862C86.2583 24.4105 85.2177 25.8878 83.8769 27.1362L86.6025 30.0638C88.355 28.4322 89.7144 26.4962 90.6754 24.2738L87.004 22.6862ZM83.8905 27.1236C82.5533 28.3455 80.9452 29.3084 79.0381 29.9997L80.4013 33.7603C82.7608 32.9049 84.8327 31.6811 86.5888 30.0764L83.8905 27.1236ZM79.059 29.9923C77.1662 30.6547 75.0334 31 72.6397 31V35C75.4193 35 78.0065 34.5986 80.3804 33.7677L79.059 29.9923ZM72.6397 31H58.3197V35H72.6397V31ZM67.5197 28.68H72.8797V24.68H67.5197V28.68ZM72.8797 28.68C75.1529 28.68 77.2144 28.2092 78.9585 27.149L76.8809 23.731C75.905 24.3241 74.6065 24.68 72.8797 24.68V28.68ZM78.9585 27.149C80.6347 26.1302 81.9326 24.7333 82.8218 22.9879L79.2576 21.1721C78.7068 22.2534 77.9247 23.0965 76.8809 23.731L78.9585 27.149ZM82.8285 22.9744C83.7021 21.2274 84.1197 19.3026 84.1197 17.24H80.1197C80.1197 18.7507 79.8173 20.0526 79.2508 21.1856L82.8285 22.9744ZM84.1197 17.24C84.1197 15.7009 83.7903 14.2578 83.0301 13.0034L79.6093 15.0766C79.9157 15.5822 80.1197 16.2724 80.1197 17.24H84.1197ZM83.0529 13.0421C82.3076 11.7475 81.1834 10.8101 79.7989 10.2066L78.2005 13.8734C78.896 14.1766 79.3185 14.5725 79.5864 15.0379L83.0529 13.0421ZM79.8559 10.2325C78.4974 9.58905 76.9161 9.32 75.1997 9.32V13.32C76.5233 13.32 77.4753 13.5309 78.1435 13.8475L79.8559 10.2325ZM75.1997 9.32H70.5597V13.32H75.1997V9.32ZM68.5977 10.9317L65.5577 26.2917L69.4816 27.0683L72.5216 11.7083L68.5977 10.9317ZM97.9666 31.96L96.9558 33.6858L96.9702 33.6943L96.9849 33.7025L97.9666 31.96ZM94.0066 27.4L92.1444 28.1298L92.1479 28.1384L94.0066 27.4ZM93.6066 20.52L91.6457 20.1258L91.6431 20.1393L93.6066 20.52ZM96.7266 5V3H95.0886L94.7658 4.60582L96.7266 5ZM104.647 5L106.608 5.39223L107.086 3H104.647V5ZM101.567 20.4L99.6054 20.0078L99.6036 20.0168L99.6019 20.0258L101.567 20.4ZM101.367 23.32L99.3759 23.5126V23.5126L101.367 23.32ZM102.047 25.4L100.382 26.5094L100.4 26.5362L100.419 26.5625L102.047 25.4ZM103.607 26.64L102.837 28.4862L102.883 28.5051L102.929 28.5218L103.607 26.64ZM108.807 26.36L109.748 28.1247L109.758 28.1192L109.768 28.1136L108.807 26.36ZM110.847 24.24L109.107 23.2528L109.103 23.2607L109.098 23.2687L110.847 24.24ZM112.127 20.4L110.165 20.0078L110.163 20.0206L110.16 20.0334L112.127 20.4ZM115.207 5V3H113.567L113.245 4.60777L115.207 5ZM123.007 5L124.968 5.39033L125.444 3H123.007V5ZM119.847 20.88L117.885 20.4897L117.885 20.4902L119.847 20.88ZM114.887 30.36L116.191 31.8762L116.2 31.8682L114.887 30.36ZM105.007 31.56C102.454 31.56 100.468 31.0735 98.9482 30.2175L96.9849 33.7025C99.2522 34.9799 101.959 35.56 105.007 35.56V31.56ZM98.9774 30.2342C97.4819 29.3583 96.4682 28.1794 95.8653 26.6616L92.1479 28.1384C93.0916 30.5139 94.7179 32.375 96.9558 33.6858L98.9774 30.2342ZM95.8687 26.6703C95.2652 25.1302 95.1171 23.2366 95.57 20.9007L91.6431 20.1393C91.0827 23.0301 91.2013 25.7231 92.1444 28.1297L95.8687 26.6703ZM95.5673 20.9142L98.6873 5.39417L94.7658 4.60582L91.6458 20.1258L95.5673 20.9142ZM96.7266 7H104.647V3H96.7266V7ZM102.685 4.60777L99.6054 20.0078L103.528 20.7922L106.608 5.39223L102.685 4.60777ZM99.6019 20.0258C99.3652 21.2683 99.2722 22.4411 99.3759 23.5126L103.357 23.1274C103.301 22.5455 103.341 21.7717 103.531 20.7742L99.6019 20.0258ZM99.3759 23.5126C99.4803 24.5915 99.7885 25.6184 100.382 26.5094L103.711 24.2906C103.558 24.0616 103.413 23.7018 103.357 23.1273L99.3759 23.5126ZM100.419 26.5625C101.038 27.4283 101.856 28.0772 102.837 28.4862L104.376 24.7938C104.077 24.6695 103.856 24.4917 103.674 24.2375L100.419 26.5625ZM102.929 28.5218C103.864 28.8584 104.89 29 105.967 29V25C105.229 25 104.682 24.9016 104.284 24.7582L102.929 28.5218ZM105.967 29C107.321 29 108.604 28.7346 109.748 28.1247L107.865 24.5953C107.409 24.8387 106.799 25 105.967 25V29ZM109.768 28.1136C110.977 27.4507 111.909 26.4457 112.595 25.2113L109.098 23.2687C108.717 23.9543 108.289 24.3626 107.845 24.6064L109.768 28.1136ZM112.586 25.2272C113.29 23.9863 113.774 22.4756 114.093 20.7666L110.16 20.0334C109.892 21.471 109.523 22.5204 109.107 23.2528L112.586 25.2272ZM114.088 20.7922L117.168 5.39223L113.245 4.60777L110.165 20.0078L114.088 20.7922ZM115.207 7H123.007V3H115.207V7ZM121.045 4.60967L117.885 20.4897L121.808 21.2703L124.968 5.39033L121.045 4.60967ZM117.885 20.4902C117.119 24.3428 115.633 27.0574 113.573 28.8518L116.2 31.8682C119.1 29.3426 120.92 25.7372 121.808 21.2698L117.885 20.4902ZM113.582 28.8438C111.551 30.5916 108.761 31.56 105.007 31.56V35.56C109.466 35.56 113.263 34.3951 116.191 31.8762L113.582 28.8438ZM128.652 33.16L129.01 31.1923L128.992 31.1891L128.975 31.1863L128.652 33.16ZM124.652 32.12L123.909 33.977L123.927 33.9841L123.945 33.9909L124.652 32.12ZM121.572 30.56L119.803 29.6275L118.955 31.2351L120.475 32.2321L121.572 30.56ZM124.692 24.64L125.735 22.9334L123.916 21.8221L122.923 23.7075L124.692 24.64ZM127.652 26.16L126.876 28.0033L126.905 28.0154L126.934 28.0267L127.652 26.16ZM130.812 27.08L130.42 29.0412L130.812 27.08ZM136.612 27.12L137.114 29.056L137.147 29.0474L137.18 29.0376L136.612 27.12ZM138.252 26.24L136.838 24.8258L138.252 26.24ZM138.052 23.6L136.881 25.2214L136.931 25.2578L136.984 25.291L138.052 23.6ZM136.132 22.72L135.557 24.6357L136.132 22.72ZM133.452 22L132.917 23.927L132.948 23.9357L132.979 23.9433L133.452 22ZM130.532 21.08L129.807 22.944L129.838 22.956L129.869 22.9669L130.532 21.08ZM127.892 19.72L126.745 21.3585L126.764 21.3715L126.782 21.3841L127.892 19.72ZM125.932 17.6L124.189 18.5805L124.2 18.6009L124.212 18.6211L125.932 17.6ZM131.492 5.68L130.736 3.82811L130.728 3.83167L131.492 5.68ZM144.252 5.08L143.774 7.02203L143.788 7.02551L143.802 7.02878L144.252 5.08ZM148.732 6.84L150.528 7.71973L151.326 6.09054L149.782 5.13793L148.732 6.84ZM145.852 12.72L144.781 14.409L146.666 15.6045L147.648 13.5997L145.852 12.72ZM142.212 11.16L141.662 13.083L141.685 13.0896L141.709 13.0956L142.212 11.16ZM135.412 10.96L134.819 9.04987L134.809 9.05286L134.8 9.05594L135.412 10.96ZM133.692 11.96L132.233 10.5921L132.23 10.5954L133.692 11.96ZM133.852 14.64L135.023 13.0186V13.0186L133.852 14.64ZM135.772 15.52L135.197 17.4357L135.206 17.4382L135.214 17.4407L135.772 15.52ZM138.452 16.28L137.917 18.207L137.948 18.2157L137.979 18.2233L138.452 16.28ZM141.372 17.16L140.693 19.0411L140.716 19.0495L140.739 19.0574L141.372 17.16ZM144.052 18.48L142.93 20.1358L142.949 20.1484L142.968 20.1606L144.052 18.48ZM146.012 20.52L144.282 21.5243L146.012 20.52ZM145.092 28.84L146.706 30.0215L145.092 28.84ZM140.412 32.32L141.167 34.1719H141.167L140.412 32.32ZM133.252 31.56C131.763 31.56 130.35 31.436 129.01 31.1923L128.294 35.1277C129.887 35.4174 131.541 35.56 133.252 35.56V31.56ZM128.975 31.1863C127.619 30.9644 126.417 30.6488 125.359 30.2491L123.945 33.9909C125.287 34.4979 126.751 34.8756 128.329 35.1338L128.975 31.1863ZM125.395 30.263C124.288 29.8202 123.386 29.3583 122.669 28.8879L120.475 32.2321C121.464 32.8817 122.616 33.4598 123.909 33.977L125.395 30.263ZM123.341 31.4925L126.461 25.5725L122.923 23.7075L119.803 29.6275L123.341 31.4925ZM123.649 26.3466C124.692 26.9842 125.768 27.5369 126.876 28.0033L128.428 24.3167C127.509 23.9298 126.611 23.4691 125.735 22.9334L123.649 26.3466ZM126.934 28.0267C128.077 28.4664 129.239 28.8051 130.42 29.0412L131.204 25.1188C130.251 24.9282 129.307 24.6536 128.37 24.2933L126.934 28.0267ZM130.42 29.0412C131.613 29.2798 132.811 29.4 134.012 29.4V25.4C133.079 25.4 132.144 25.3069 131.204 25.1188L130.42 29.0412ZM134.012 29.4C135.138 29.4 136.183 29.2973 137.114 29.056L136.11 25.184C135.601 25.316 134.912 25.4 134.012 25.4V29.4ZM137.18 29.0376C138.093 28.7672 138.979 28.3418 139.666 27.6542L136.838 24.8258C136.779 24.8849 136.571 25.0462 136.044 25.2024L137.18 29.0376ZM139.666 27.6542C140.397 26.9234 140.812 25.9815 140.812 24.92H136.812C136.812 24.9233 136.812 24.9159 136.815 24.9006C136.818 24.885 136.823 24.867 136.831 24.8489C136.838 24.831 136.846 24.8188 136.85 24.8133C136.853 24.8081 136.851 24.8126 136.838 24.8258L139.666 27.6542ZM140.812 24.92C140.812 23.6179 140.158 22.5646 139.12 21.909L136.984 25.291C137.012 25.3087 136.951 25.2762 136.889 25.1679C136.823 25.0538 136.812 24.9533 136.812 24.92H140.812ZM139.223 21.9786C138.504 21.4597 137.64 21.0843 136.707 20.8043L135.557 24.6357C136.224 24.8357 136.639 25.047 136.881 25.2214L139.223 21.9786ZM136.707 20.8043C135.867 20.5523 134.938 20.3033 133.925 20.0567L132.979 23.9433C133.939 24.1767 134.797 24.4077 135.557 24.6357L136.707 20.8043ZM133.987 20.073C133.072 19.8188 132.141 19.5257 131.195 19.1931L129.869 22.9669C130.896 23.3277 131.912 23.6479 132.917 23.927L133.987 20.073ZM131.257 19.216C130.422 18.8915 129.673 18.5034 129.001 18.0559L126.782 21.3841C127.711 22.0033 128.721 22.5219 129.807 22.944L131.257 19.216ZM129.039 18.0815C128.475 17.6871 128.016 17.1922 127.652 16.5789L124.212 18.6211C124.861 19.7144 125.708 20.6329 126.745 21.3585L129.039 18.0815ZM127.675 16.6195C127.404 16.138 127.212 15.444 127.212 14.44H123.212C123.212 15.9427 123.5 17.3553 124.189 18.5805L127.675 16.6195ZM127.212 14.44C127.212 12.7956 127.647 11.4592 128.466 10.3415L125.238 7.97852C123.87 9.84746 123.212 12.031 123.212 14.44H127.212ZM128.466 10.3415C129.308 9.19115 130.537 8.23891 132.256 7.52833L130.728 3.83167C128.447 4.77442 126.583 6.14218 125.238 7.97852L128.466 10.3415ZM132.247 7.53187C133.981 6.82448 136.101 6.44 138.652 6.44V2.44C135.71 2.44 133.056 2.88218 130.737 3.82813L132.247 7.53187ZM138.652 6.44C140.51 6.44 142.214 6.63816 143.774 7.02203L144.73 3.13797C142.823 2.6685 140.794 2.44 138.652 2.44V6.44ZM143.802 7.02878C145.366 7.38965 146.648 7.90407 147.682 8.54207L149.782 5.13793C148.309 4.22926 146.604 3.57035 144.702 3.13122L143.802 7.02878ZM146.936 5.96026L144.056 11.8403L147.648 13.5997L150.528 7.71973L146.936 5.96026ZM146.923 11.031C145.643 10.2195 144.236 9.6199 142.715 9.22435L141.709 13.0956C142.854 13.3934 143.874 13.8338 144.781 14.409L146.923 11.031ZM142.761 9.23695C141.272 8.81153 139.741 8.6 138.172 8.6V12.6C139.377 12.6 140.538 12.7618 141.662 13.083L142.761 9.23695ZM138.172 8.6C136.964 8.6 135.834 8.73484 134.819 9.04987L136.005 12.8701C136.536 12.7052 137.246 12.6 138.172 12.6V8.6ZM134.8 9.05594C133.836 9.36578 132.931 9.84749 132.233 10.5921L135.151 13.3279C135.253 13.2192 135.494 13.0342 136.024 12.8641L134.8 9.05594ZM132.23 10.5954C131.541 11.3334 131.132 12.2642 131.132 13.32H135.132C135.132 13.3168 135.132 13.3215 135.13 13.3317C135.129 13.3366 135.128 13.3418 135.126 13.3472C135.125 13.3526 135.123 13.3574 135.121 13.3615C135.118 13.3702 135.116 13.3722 135.119 13.3673C135.122 13.3621 135.133 13.3476 135.154 13.3246L132.23 10.5954ZM131.132 13.32C131.132 14.5734 131.747 15.5867 132.681 16.2614L135.023 13.0186C134.981 12.9887 135.021 13.0068 135.068 13.0923C135.09 13.1333 135.108 13.1784 135.119 13.2237C135.13 13.2684 135.132 13.3022 135.132 13.32H131.132ZM132.681 16.2614C133.399 16.7803 134.264 17.1557 135.197 17.4357L136.347 13.6043C135.68 13.4043 135.264 13.193 135.023 13.0186L132.681 16.2614ZM135.214 17.4407C136.049 17.6832 136.95 17.9386 137.917 18.207L138.987 14.353C138.033 14.0881 137.148 13.8368 136.329 13.5993L135.214 17.4407ZM137.979 18.2233C138.896 18.4462 139.8 18.7188 140.693 19.0411L142.051 15.2789C141.024 14.9079 139.982 14.5938 138.925 14.3367L137.979 18.2233ZM140.739 19.0574C141.528 19.3204 142.257 19.6797 142.93 20.1358L145.174 16.8242C144.194 16.1603 143.135 15.6396 142.004 15.2626L140.739 19.0574ZM142.968 20.1606C143.537 20.5278 143.966 20.979 144.282 21.5243L147.741 19.5157C147.098 18.4077 146.22 17.4989 145.136 16.7994L142.968 20.1606ZM144.282 21.5243C144.542 21.9711 144.732 22.6282 144.732 23.6H148.732C148.732 22.1185 148.442 20.7222 147.741 19.5157L144.282 21.5243ZM144.732 23.6C144.732 25.2114 144.3 26.5361 143.478 27.6585L146.706 30.0215C148.07 28.1572 148.732 25.9886 148.732 23.6H144.732ZM143.478 27.6585C142.641 28.8026 141.404 29.7554 139.657 30.4681L141.167 34.1719C143.473 33.2313 145.357 31.8641 146.706 30.0215L143.478 27.6585ZM139.657 30.4681C137.922 31.1755 135.803 31.56 133.252 31.56V35.56C136.194 35.56 138.848 35.1178 141.167 34.1719L139.657 30.4681ZM154.24 33L152.279 32.6064L151.798 35H154.24V33ZM158.6 11.28L160.561 11.6736L161.041 9.28H158.6V11.28ZM150 11.28L148.04 10.8806L147.551 13.28H150V11.28ZM151.28 5V3H149.646L149.32 4.60057L151.28 5ZM176.36 5L178.319 5.39943L178.808 3H176.36V5ZM175.08 11.28V13.28H176.713L177.039 11.6794L175.08 11.28ZM166.52 11.28V9.28H164.881L164.559 10.8864L166.52 11.28ZM162.16 33V35H163.798L164.121 33.3936L162.16 33ZM156.201 33.3936L160.561 11.6736L156.639 10.8864L152.279 32.6064L156.201 33.3936ZM158.6 9.28H150V13.28H158.6V9.28ZM151.959 11.6794L153.239 5.39943L149.32 4.60057L148.04 10.8806L151.959 11.6794ZM151.28 7H176.36V3H151.28V7ZM174.4 4.60057L173.12 10.8806L177.039 11.6794L178.319 5.39943L174.4 4.60057ZM175.08 9.28H166.52V13.28H175.08V9.28ZM164.559 10.8864L160.199 32.6064L164.121 33.3936L168.481 11.6736L164.559 10.8864ZM162.16 31H154.24V35H162.16V31Z" fill="#FAB802"/>
</svg>
