<svg width="487" height="44" viewBox="0 0 487 44" fill="none" xmlns="http://www.w3.org/2000/svg">
<path d="M0.96 43L9.36 0.999997H19.02L30.6 29.62H25.5L47.94 0.999997H58.08L49.8 43H38.82L43.8 17.56L45.78 17.5L29.16 38.86H23.94L14.88 17.44L16.98 17.62L11.88 43H0.96ZM53.1661 43L80.1061 0.999997H91.8061L101.946 43H90.1261L82.6261 6.64H87.3061L65.7061 43H53.1661ZM64.9261 34.84L69.7261 26.08H90.2461L91.5661 34.84H64.9261ZM105.374 43L113.774 0.999997H131.714C137.114 0.999997 141.274 2.18 144.194 4.54C147.154 6.9 148.634 10.18 148.634 14.38C148.634 17.9 147.774 20.98 146.054 23.62C144.374 26.22 141.974 28.24 138.854 29.68C135.734 31.12 132.054 31.84 127.814 31.84H114.194L120.494 26.74L117.254 43H105.374ZM131.714 43L123.134 27.7H135.434L144.134 43H131.714ZM120.194 28.12L116.054 22.66H128.354C130.994 22.66 133.034 22.04 134.474 20.8C135.914 19.56 136.634 17.8 136.634 15.52C136.634 13.76 136.054 12.46 134.894 11.62C133.734 10.78 132.114 10.36 130.034 10.36H118.574L124.934 4.72L120.194 28.12ZM162.328 33.88L164.068 20.32L185.428 0.999997H199.408L177.508 20.56L169.588 27.34L162.328 33.88ZM149.788 43L158.188 0.999997H169.888L161.488 43H149.788ZM178.648 43L167.548 25.66L176.188 17.68L191.908 43H178.648ZM210.925 17.26H230.425L228.685 26.14H209.185L210.925 17.26ZM208.465 33.82H230.485L228.565 43H194.905L203.305 0.999997H236.185L234.325 10.18H213.145L208.465 33.82ZM244.098 43L250.638 10.42H237.738L239.658 0.999997H277.278L275.358 10.42H262.518L255.978 43H244.098ZM273.304 43L281.704 0.999997H299.464C304.904 0.999997 309.104 2.18 312.064 4.54C315.024 6.9 316.504 10.22 316.504 14.5C316.504 18.02 315.664 21.1 313.984 23.74C312.304 26.38 309.904 28.42 306.784 29.86C303.664 31.3 299.984 32.02 295.744 32.02H282.124L288.424 26.74L285.184 43H273.304ZM288.124 28.12L283.984 22.66H296.284C298.884 22.66 300.904 22.04 302.344 20.8C303.784 19.56 304.504 17.8 304.504 15.52C304.504 13.76 303.924 12.46 302.764 11.62C301.604 10.78 299.984 10.36 297.904 10.36H286.504L292.804 4.72L288.124 28.12ZM316.956 43L325.356 0.999997H337.236L330.756 33.58H350.796L348.876 43H316.956ZM348.947 43L375.887 0.999997H387.587L397.727 43H385.907L378.407 6.64H383.087L361.487 43H348.947ZM360.707 34.84L365.507 26.08H386.027L387.347 34.84H360.707ZM423.489 43.84C419.209 43.84 415.469 43.06 412.269 41.5C409.109 39.94 406.669 37.78 404.949 35.02C403.229 32.22 402.369 29 402.369 25.36C402.369 21.72 403.009 18.36 404.289 15.28C405.569 12.2 407.369 9.54 409.689 7.3C412.009 5.02 414.769 3.26 417.969 2.02C421.209 0.779998 424.789 0.159997 428.709 0.159997C432.589 0.159997 436.029 0.839998 439.029 2.2C442.029 3.56 444.269 5.52 445.749 8.08L437.169 14.92C436.209 13.32 434.949 12.1 433.389 11.26C431.869 10.42 430.049 10 427.929 10C425.889 10 424.029 10.36 422.349 11.08C420.709 11.8 419.289 12.82 418.089 14.14C416.889 15.46 415.969 17.02 415.329 18.82C414.689 20.58 414.369 22.5 414.369 24.58C414.369 26.46 414.769 28.12 415.569 29.56C416.409 30.96 417.589 32.06 419.109 32.86C420.669 33.62 422.509 34 424.629 34C426.509 34 428.309 33.62 430.029 32.86C431.789 32.1 433.409 30.86 434.889 29.14L441.909 36.04C439.549 38.88 436.829 40.9 433.749 42.1C430.669 43.26 427.249 43.84 423.489 43.84ZM460.886 17.26H480.386L478.646 26.14H459.146L460.886 17.26ZM458.426 33.82H480.446L478.526 43H444.866L453.266 0.999997H486.146L484.286 10.18H463.106L458.426 33.82Z" fill="#FAB802"/>
<path d="M0.96 43L-1.00116 42.6078L-1.47961 45H0.96V43ZM9.36 0.999997V-1H7.72039L7.39884 0.607765L9.36 0.999997ZM19.02 0.999997L20.874 0.24985L20.3683 -1H19.02V0.999997ZM30.6 29.62V31.62H33.5667L32.454 28.8699L30.6 29.62ZM25.5 29.62L23.9261 28.386L21.3904 31.62H25.5V29.62ZM47.94 0.999997V-1H46.9667L46.3661 -0.234042L47.94 0.999997ZM58.08 0.999997L60.0422 1.38684L60.5128 -1H58.08V0.999997ZM49.8 43V45H51.4442L51.7622 43.3868L49.8 43ZM38.82 43L36.8573 42.6158L36.3905 45H38.82V43ZM43.8 17.56L43.7394 15.5609L42.1439 15.6093L41.8373 17.1758L43.8 17.56ZM45.78 17.5L47.3585 18.7282L49.9698 15.3721L45.7194 15.5009L45.78 17.5ZM29.16 38.86V40.86H30.1379L30.7385 40.0882L29.16 38.86ZM23.94 38.86L22.098 39.6391L22.6144 40.86H23.94V38.86ZM14.88 17.44L15.0508 15.4473L11.7458 15.164L13.038 18.2191L14.88 17.44ZM16.98 17.62L18.9408 18.014L19.382 15.8186L17.1508 15.6273L16.98 17.62ZM11.88 43V45H13.5181L13.8408 43.394L11.88 43ZM2.92116 43.3922L11.3212 1.39223L7.39884 0.607765L-1.00116 42.6078L2.92116 43.3922ZM9.36 3H19.02V-1H9.36V3ZM17.166 1.75014L28.746 30.3701L32.454 28.8699L20.874 0.24985L17.166 1.75014ZM30.6 27.62H25.5V31.62H30.6V27.62ZM27.0739 30.854L49.5139 2.23404L46.3661 -0.234042L23.9261 28.386L27.0739 30.854ZM47.94 3H58.08V-1H47.94V3ZM56.1178 0.613157L47.8378 42.6132L51.7622 43.3868L60.0422 1.38684L56.1178 0.613157ZM49.8 41H38.82V45H49.8V41ZM40.7827 43.3842L45.7627 17.9442L41.8373 17.1758L36.8573 42.6158L40.7827 43.3842ZM43.8606 19.5591L45.8406 19.4991L45.7194 15.5009L43.7394 15.5609L43.8606 19.5591ZM44.2015 16.2718L27.5815 37.6318L30.7385 40.0882L47.3585 18.7282L44.2015 16.2718ZM29.16 36.86H23.94V40.86H29.16V36.86ZM25.782 38.0809L16.722 16.6609L13.038 18.2191L22.098 39.6391L25.782 38.0809ZM14.7092 19.4327L16.8092 19.6127L17.1508 15.6273L15.0508 15.4473L14.7092 19.4327ZM15.0192 17.226L9.9192 42.606L13.8408 43.394L18.9408 18.014L15.0192 17.226ZM11.88 41H0.96V45H11.88V41ZM53.1661 43L51.4826 41.9202L49.5072 45H53.1661V43ZM80.1061 0.999997V-1H79.0129L78.4226 -0.0798159L80.1061 0.999997ZM91.8061 0.999997L93.7502 0.530625L93.3807 -1H91.8061V0.999997ZM101.946 43V45H104.486L103.89 42.5306L101.946 43ZM90.1261 43L88.1673 43.404L88.4965 45H90.1261V43ZM82.6261 6.64V4.64H80.1714L80.6673 7.04403L82.6261 6.64ZM87.3061 6.64L89.0256 7.66147L90.8205 4.64H87.3061V6.64ZM65.7061 43V45H66.8443L67.4256 44.0215L65.7061 43ZM64.9261 34.84L63.1721 33.8789L61.5496 36.84H64.9261V34.84ZM69.7261 26.08V24.08H68.5414L67.9721 25.1189L69.7261 26.08ZM90.2461 26.08L92.2238 25.782L91.9673 24.08H90.2461V26.08ZM91.5661 34.84V36.84H93.89L93.5438 34.542L91.5661 34.84ZM54.8495 44.0798L81.7895 2.07981L78.4226 -0.0798159L51.4826 41.9202L54.8495 44.0798ZM80.1061 3H91.8061V-1H80.1061V3ZM89.862 1.46937L100.002 43.4694L103.89 42.5306L93.7502 0.530625L89.862 1.46937ZM101.946 41H90.1261V45H101.946V41ZM92.0849 42.596L84.5849 6.23596L80.6673 7.04403L88.1673 43.404L92.0849 42.596ZM82.6261 8.64H87.3061V4.64H82.6261V8.64ZM85.5866 5.61853L63.9866 41.9785L67.4256 44.0215L89.0256 7.66147L85.5866 5.61853ZM65.7061 41H53.1661V45H65.7061V41ZM66.68 35.8011L71.48 27.0411L67.9721 25.1189L63.1721 33.8789L66.68 35.8011ZM69.7261 28.08H90.2461V24.08H69.7261V28.08ZM88.2684 26.378L89.5884 35.138L93.5438 34.542L92.2238 25.782L88.2684 26.378ZM91.5661 32.84H64.9261V36.84H91.5661V32.84ZM105.374 43L103.413 42.6078L102.934 45H105.374V43ZM113.774 0.999997V-1H112.134L111.813 0.607765L113.774 0.999997ZM144.194 4.54L142.937 6.09551L142.947 6.1038L144.194 4.54ZM146.054 23.62L144.378 22.5282L144.374 22.5346L146.054 23.62ZM138.854 29.68L138.016 27.8641L138.854 29.68ZM114.194 31.84L112.936 30.2855L108.545 33.84H114.194V31.84ZM120.494 26.74L122.456 27.1308L123.537 21.7035L119.236 25.1855L120.494 26.74ZM117.254 43V45H118.895L119.215 43.3908L117.254 43ZM131.714 43L129.97 43.9782L130.543 45H131.714V43ZM123.134 27.7V25.7H119.719L121.39 28.6782L123.134 27.7ZM135.434 27.7L137.173 26.7114L136.598 25.7H135.434V27.7ZM144.134 43V45H147.572L145.873 42.0114L144.134 43ZM120.194 28.12L118.6 29.3284L121.275 32.8562L122.154 28.5171L120.194 28.12ZM116.054 22.66V20.66H112.028L114.46 23.8684L116.054 22.66ZM134.474 20.8L135.779 22.3155L134.474 20.8ZM134.894 11.62L133.721 13.2399V13.2399L134.894 11.62ZM118.574 10.36L117.247 8.86362L113.304 12.36H118.574V10.36ZM124.934 4.72L126.894 5.11706L128.082 -0.744297L123.607 3.22362L124.934 4.72ZM107.335 43.3922L115.735 1.39223L111.813 0.607765L103.413 42.6078L107.335 43.3922ZM113.774 3H131.714V-1H113.774V3ZM131.714 3C136.852 3 140.5 4.12575 142.937 6.09548L145.451 2.98452C142.048 0.234247 137.376 -1 131.714 -1V3ZM142.947 6.1038C145.375 8.03941 146.634 10.7129 146.634 14.38H150.634C150.634 9.64714 148.933 5.76059 145.441 2.9762L142.947 6.1038ZM146.634 14.38C146.634 17.5593 145.862 20.2503 144.378 22.5282L147.73 24.7118C149.686 21.7097 150.634 18.2407 150.634 14.38H146.634ZM144.374 22.5346C142.922 24.7819 140.831 26.5648 138.016 27.8641L139.692 31.4959C143.117 29.9152 145.826 27.6581 147.734 24.7054L144.374 22.5346ZM138.016 27.8641C135.213 29.1579 131.831 29.84 127.814 29.84V33.84C132.277 33.84 136.255 33.0821 139.692 31.4959L138.016 27.8641ZM127.814 29.84H114.194V33.84H127.814V29.84ZM115.452 33.3945L121.752 28.2945L119.236 25.1855L112.936 30.2855L115.452 33.3945ZM118.533 26.3492L115.293 42.6092L119.215 43.3908L122.456 27.1308L118.533 26.3492ZM117.254 41H105.374V45H117.254V41ZM133.458 42.0218L124.878 26.7218L121.39 28.6782L129.97 43.9782L133.458 42.0218ZM123.134 29.7H135.434V25.7H123.134V29.7ZM133.695 28.6886L142.395 43.9886L145.873 42.0114L137.173 26.7114L133.695 28.6886ZM144.134 41H131.714V45H144.134V41ZM121.788 26.9116L117.648 21.4516L114.46 23.8684L118.6 29.3284L121.788 26.9116ZM116.054 24.66H128.354V20.66H116.054V24.66ZM128.354 24.66C131.287 24.66 133.857 23.971 135.779 22.3155L133.169 19.2845C132.212 20.109 130.701 20.66 128.354 20.66V24.66ZM135.779 22.3155C137.749 20.6196 138.634 18.2546 138.634 15.52H134.634C134.634 17.3454 134.079 18.5004 133.169 19.2845L135.779 22.3155ZM138.634 15.52C138.634 13.2835 137.867 11.3035 136.067 10.0001L133.721 13.2399C134.241 13.6165 134.634 14.2365 134.634 15.52H138.634ZM136.067 10.0001C134.443 8.82398 132.353 8.36 130.034 8.36V12.36C131.875 12.36 133.025 12.736 133.721 13.2399L136.067 10.0001ZM130.034 8.36H118.574V12.36H130.034V8.36ZM119.901 11.8564L126.261 6.21638L123.607 3.22362L117.247 8.86362L119.901 11.8564ZM122.974 4.32294L118.234 27.7229L122.154 28.5171L126.894 5.11706L122.974 4.32294ZM162.328 33.88L160.344 33.6255L159.658 38.9775L163.667 35.366L162.328 33.88ZM164.068 20.32L162.727 18.8367L162.178 19.3325L162.084 20.0654L164.068 20.32ZM185.428 0.999997V-1H184.658L184.087 -0.483272L185.428 0.999997ZM199.408 0.999997L200.74 2.49166L204.65 -1H199.408V0.999997ZM177.508 20.56L178.809 22.0793L178.825 22.0657L178.84 22.0517L177.508 20.56ZM169.588 27.34L168.287 25.8207L168.268 25.8371L168.25 25.854L169.588 27.34ZM149.788 43L147.827 42.6078L147.349 45H149.788V43ZM158.188 0.999997V-1H156.549L156.227 0.607765L158.188 0.999997ZM169.888 0.999997L171.849 1.39223L172.328 -1H169.888V0.999997ZM161.488 43V45H163.128L163.449 43.3922L161.488 43ZM178.648 43L176.964 44.0783L177.554 45H178.648V43ZM167.548 25.66L166.191 24.1908L164.961 25.3274L165.864 26.7383L167.548 25.66ZM176.188 17.68L177.887 16.6251L176.61 14.5678L174.831 16.2108L176.188 17.68ZM191.908 43V45H195.504L193.607 41.9451L191.908 43ZM164.312 34.1345L166.052 20.5746L162.084 20.0654L160.344 33.6255L164.312 34.1345ZM165.41 21.8033L186.77 2.48327L184.087 -0.483272L162.727 18.8367L165.41 21.8033ZM185.428 3H199.408V-1H185.428V3ZM198.076 -0.491661L176.176 19.0683L178.84 22.0517L200.74 2.49166L198.076 -0.491661ZM176.207 19.0407L168.287 25.8207L170.889 28.8593L178.809 22.0793L176.207 19.0407ZM168.25 25.854L160.99 32.394L163.667 35.366L170.927 28.826L168.25 25.854ZM151.749 43.3922L160.149 1.39223L156.227 0.607765L147.827 42.6078L151.749 43.3922ZM158.188 3H169.888V-1H158.188V3ZM167.927 0.607765L159.527 42.6078L163.449 43.3922L171.849 1.39223L167.927 0.607765ZM161.488 41H149.788V45H161.488V41ZM180.333 41.9217L169.233 24.5817L165.864 26.7383L176.964 44.0783L180.333 41.9217ZM168.905 27.1292L177.545 19.1492L174.831 16.2108L166.191 24.1908L168.905 27.1292ZM174.489 18.7349L190.209 44.0549L193.607 41.9451L177.887 16.6251L174.489 18.7349ZM191.908 41H178.648V45H191.908V41ZM210.925 17.26V15.26H209.279L208.963 16.8754L210.925 17.26ZM230.425 17.26L232.388 17.6446L232.855 15.26H230.425V17.26ZM228.685 26.14V28.14H230.331L230.648 26.5246L228.685 26.14ZM209.185 26.14L207.223 25.7554L206.755 28.14H209.185V26.14ZM208.465 33.82L206.503 33.4316L206.031 35.82H208.465V33.82ZM230.485 33.82L232.443 34.2294L232.947 31.82H230.485V33.82ZM228.565 43V45H230.19L230.523 43.4094L228.565 43ZM194.905 43L192.944 42.6078L192.466 45H194.905V43ZM203.305 0.999997V-1H201.666L201.344 0.607765L203.305 0.999997ZM236.185 0.999997L238.145 1.39716L238.631 -1H236.185V0.999997ZM234.325 10.18V12.18H235.961L236.285 10.5772L234.325 10.18ZM213.145 10.18V8.18H211.502L211.183 9.7916L213.145 10.18ZM210.925 19.26H230.425V15.26H210.925V19.26ZM228.463 16.8754L226.723 25.7554L230.648 26.5246L232.388 17.6446L228.463 16.8754ZM228.685 24.14H209.185V28.14H228.685V24.14ZM211.148 26.5246L212.888 17.6446L208.963 16.8754L207.223 25.7554L211.148 26.5246ZM208.465 35.82H230.485V31.82H208.465V35.82ZM228.528 33.4106L226.608 42.5906L230.523 43.4094L232.443 34.2294L228.528 33.4106ZM228.565 41H194.905V45H228.565V41ZM196.866 43.3922L205.266 1.39223L201.344 0.607765L192.944 42.6078L196.866 43.3922ZM203.305 3H236.185V-1H203.305V3ZM234.225 0.602839L232.365 9.78284L236.285 10.5772L238.145 1.39716L234.225 0.602839ZM234.325 8.18H213.145V12.18H234.325V8.18ZM211.183 9.7916L206.503 33.4316L210.427 34.2084L215.107 10.5684L211.183 9.7916ZM244.098 43L242.137 42.6064L241.656 45H244.098V43ZM250.638 10.42L252.599 10.8136L253.079 8.42H250.638V10.42ZM237.738 10.42L235.778 10.0206L235.289 12.42H237.738V10.42ZM239.658 0.999997V-1H238.024L237.698 0.600566L239.658 0.999997ZM277.278 0.999997L279.238 1.39943L279.727 -1H277.278V0.999997ZM275.358 10.42V12.42H276.991L277.318 10.8194L275.358 10.42ZM262.518 10.42V8.42H260.879L260.557 10.0264L262.518 10.42ZM255.978 43V45H257.616L257.939 43.3936L255.978 43ZM246.059 43.3936L252.599 10.8136L248.677 10.0264L242.137 42.6064L246.059 43.3936ZM250.638 8.42H237.738V12.42H250.638V8.42ZM239.698 10.8194L241.618 1.39943L237.698 0.600566L235.778 10.0206L239.698 10.8194ZM239.658 3H277.278V-1H239.658V3ZM275.318 0.600567L273.398 10.0206L277.318 10.8194L279.238 1.39943L275.318 0.600567ZM275.358 8.42H262.518V12.42H275.358V8.42ZM260.557 10.0264L254.017 42.6064L257.939 43.3936L264.479 10.8136L260.557 10.0264ZM255.978 41H244.098V45H255.978V41ZM273.304 43L271.343 42.6078L270.864 45H273.304V43ZM281.704 0.999997V-1H280.064L279.743 0.607765L281.704 0.999997ZM312.064 4.54L313.311 2.9762L312.064 4.54ZM313.984 23.74L312.296 22.6662L313.984 23.74ZM306.784 29.86L307.622 31.6759L306.784 29.86ZM282.124 32.02L280.839 30.4872L276.624 34.02H282.124V32.02ZM288.424 26.74L290.385 27.1308L291.496 21.5555L287.139 25.2072L288.424 26.74ZM285.184 43V45H286.825L287.145 43.3908L285.184 43ZM288.124 28.12L286.53 29.3284L289.214 32.8678L290.085 28.5122L288.124 28.12ZM283.984 22.66V20.66H279.957L282.39 23.8684L283.984 22.66ZM302.344 20.8L303.649 22.3155L302.344 20.8ZM302.764 11.62L301.591 13.2399V13.2399L302.764 11.62ZM286.504 10.36L285.17 8.86989L281.271 12.36H286.504V10.36ZM292.804 4.72L294.765 5.11223L295.942 -0.773982L291.47 3.22989L292.804 4.72ZM275.265 43.3922L283.665 1.39223L279.743 0.607765L271.343 42.6078L275.265 43.3922ZM281.704 3H299.464V-1H281.704V3ZM299.464 3C304.643 3 308.337 4.1266 310.817 6.1038L313.311 2.9762C309.87 0.233394 305.164 -1 299.464 -1V3ZM310.817 6.1038C313.235 8.03154 314.504 10.7387 314.504 14.5H318.504C318.504 9.70129 316.813 5.76846 313.311 2.9762L310.817 6.1038ZM314.504 14.5C314.504 17.6886 313.747 20.3861 312.296 22.6662L315.671 24.8138C317.58 21.8139 318.504 18.3514 318.504 14.5H314.504ZM312.296 22.6662C310.842 24.951 308.753 26.7485 305.946 28.0441L307.622 31.6759C311.055 30.0915 313.765 27.809 315.671 24.8138L312.296 22.6662ZM305.946 28.0441C303.142 29.3379 299.76 30.02 295.744 30.02V34.02C300.207 34.02 304.185 33.2621 307.622 31.6759L305.946 28.0441ZM295.744 30.02H282.124V34.02H295.744V30.02ZM283.408 33.5528L289.708 28.2728L287.139 25.2072L280.839 30.4872L283.408 33.5528ZM286.462 26.3492L283.222 42.6092L287.145 43.3908L290.385 27.1308L286.462 26.3492ZM285.184 41H273.304V45H285.184V41ZM289.717 26.9116L285.577 21.4516L282.39 23.8684L286.53 29.3284L289.717 26.9116ZM283.984 24.66H296.284V20.66H283.984V24.66ZM296.284 24.66C299.186 24.66 301.731 23.9667 303.649 22.3155L301.039 19.2845C300.076 20.1133 298.581 20.66 296.284 20.66V24.66ZM303.649 22.3155C305.618 20.6196 306.504 18.2546 306.504 15.52H302.504C302.504 17.3454 301.949 18.5004 301.039 19.2845L303.649 22.3155ZM306.504 15.52C306.504 13.2835 305.737 11.3035 303.937 10.0001L301.591 13.2399C302.111 13.6165 302.504 14.2365 302.504 15.52H306.504ZM303.937 10.0001C302.313 8.82398 300.222 8.36 297.904 8.36V12.36C299.745 12.36 300.895 12.736 301.591 13.2399L303.937 10.0001ZM297.904 8.36H286.504V12.36H297.904V8.36ZM287.838 11.8501L294.138 6.21011L291.47 3.22989L285.17 8.86989L287.838 11.8501ZM290.843 4.32777L286.163 27.7278L290.085 28.5122L294.765 5.11223L290.843 4.32777ZM316.956 43L314.995 42.6078L314.516 45H316.956V43ZM325.356 0.999997V-1H323.716L323.395 0.607765L325.356 0.999997ZM337.236 0.999997L339.198 1.39014L339.673 -1H337.236V0.999997ZM330.756 33.58L328.795 33.1899L328.319 35.58H330.756V33.58ZM350.796 33.58L352.756 33.9794L353.245 31.58H350.796V33.58ZM348.876 43V45H350.51L350.836 43.3994L348.876 43ZM318.917 43.3922L327.317 1.39223L323.395 0.607765L314.995 42.6078L318.917 43.3922ZM325.356 3H337.236V-1H325.356V3ZM335.275 0.609849L328.795 33.1899L332.718 33.9701L339.198 1.39014L335.275 0.609849ZM330.756 35.58H350.796V31.58H330.756V35.58ZM348.836 33.1806L346.916 42.6006L350.836 43.3994L352.756 33.9794L348.836 33.1806ZM348.876 41H316.956V45H348.876V41ZM348.947 43L347.264 41.9202L345.288 45H348.947V43ZM375.887 0.999997V-1H374.794L374.204 -0.0798159L375.887 0.999997ZM387.587 0.999997L389.531 0.530625L389.162 -1H387.587V0.999997ZM397.727 43V45H400.268L399.671 42.5306L397.727 43ZM385.907 43L383.949 43.404L384.278 45H385.907V43ZM378.407 6.64V4.64H375.953L376.449 7.04403L378.407 6.64ZM383.087 6.64L384.807 7.66147L386.602 4.64H383.087V6.64ZM361.487 43V45H362.626L363.207 44.0215L361.487 43ZM360.707 34.84L358.953 33.8789L357.331 36.84H360.707V34.84ZM365.507 26.08V24.08H364.323L363.753 25.1189L365.507 26.08ZM386.027 26.08L388.005 25.782L387.749 24.08H386.027V26.08ZM387.347 34.84V36.84H389.671L389.325 34.542L387.347 34.84ZM350.631 44.0798L377.571 2.07981L374.204 -0.0798159L347.264 41.9202L350.631 44.0798ZM375.887 3H387.587V-1H375.887V3ZM385.643 1.46937L395.783 43.4694L399.671 42.5306L389.531 0.530625L385.643 1.46937ZM397.727 41H385.907V45H397.727V41ZM387.866 42.596L380.366 6.23596L376.449 7.04403L383.949 43.404L387.866 42.596ZM378.407 8.64H383.087V4.64H378.407V8.64ZM381.368 5.61853L359.768 41.9785L363.207 44.0215L384.807 7.66147L381.368 5.61853ZM361.487 41H348.947V45H361.487V41ZM362.461 35.8011L367.261 27.0411L363.753 25.1189L358.953 33.8789L362.461 35.8011ZM365.507 28.08H386.027V24.08H365.507V28.08ZM384.05 26.378L385.37 35.138L389.325 34.542L388.005 25.782L384.05 26.378ZM387.347 32.84H360.707V36.84H387.347V32.84ZM412.269 41.5L411.384 43.2934L411.393 43.2978L412.269 41.5ZM404.949 35.02L403.245 36.0669L403.252 36.0778L404.949 35.02ZM404.289 15.28L406.136 16.0475L404.289 15.28ZM409.689 7.3L411.079 8.7388L411.085 8.73266L411.091 8.72646L409.689 7.3ZM417.969 2.02L417.255 0.152105L417.247 0.155115L417.969 2.02ZM439.029 2.2L438.204 4.02156V4.02156L439.029 2.2ZM445.749 8.08L446.996 9.64387L448.343 8.57017L447.481 7.07899L445.749 8.08ZM437.169 14.92L435.454 15.949L436.63 17.9079L438.416 16.4839L437.169 14.92ZM433.389 11.26L432.422 13.0105L432.432 13.0158L432.441 13.0209L433.389 11.26ZM422.349 11.08L421.562 9.24171L421.553 9.24517L421.545 9.24871L422.349 11.08ZM418.089 14.14L416.609 12.7947V12.7947L418.089 14.14ZM415.329 18.82L417.209 19.5035L417.211 19.4968L417.214 19.49L415.329 18.82ZM415.569 29.56L413.821 30.5313L413.837 30.5604L413.854 30.589L415.569 29.56ZM419.109 32.86L418.178 34.6298L418.205 34.6443L418.233 34.658L419.109 32.86ZM430.029 32.86L429.237 31.0239L429.229 31.0272L429.221 31.0306L430.029 32.86ZM434.889 29.14L436.291 27.7136L434.767 26.2156L433.373 27.8355L434.889 29.14ZM441.909 36.04L443.448 37.3182L444.623 35.9033L443.311 34.6136L441.909 36.04ZM433.749 42.1L434.454 43.9717L434.465 43.9677L434.475 43.9636L433.749 42.1ZM423.489 41.84C419.452 41.84 416.023 41.1049 413.146 39.7022L411.393 43.2978C414.916 45.0151 418.966 45.84 423.489 45.84V41.84ZM413.155 39.7066C410.3 38.2971 408.153 36.3798 406.647 33.9622L403.252 36.0778C405.185 39.1802 407.919 41.5829 411.384 43.2934L413.155 39.7066ZM406.654 33.9732C405.147 31.5213 404.369 28.6715 404.369 25.36H400.369C400.369 29.3285 401.311 32.9187 403.245 36.0668L406.654 33.9732ZM404.369 25.36C404.369 21.9592 404.966 18.8629 406.136 16.0475L402.443 14.5125C401.053 17.8571 400.369 21.4808 400.369 25.36H404.369ZM406.136 16.0475C407.315 13.2114 408.962 10.7822 411.079 8.7388L408.3 5.86119C405.777 8.29784 403.824 11.1886 402.443 14.5125L406.136 16.0475ZM411.091 8.72646C413.206 6.64772 415.732 5.03201 418.692 3.88488L417.247 0.155115C413.807 1.48799 410.812 3.39228 408.288 5.87354L411.091 8.72646ZM418.684 3.88787C421.668 2.74581 425.002 2.16 428.709 2.16V-1.84C424.577 -1.84 420.75 -1.18582 417.255 0.152122L418.684 3.88787ZM428.709 2.16C432.355 2.16 435.505 2.79823 438.204 4.02156L439.855 0.378436C436.554 -1.11824 432.824 -1.84 428.709 -1.84V2.16ZM438.204 4.02156C440.869 5.22977 442.77 6.92311 444.018 9.08101L447.481 7.07899C445.768 4.11689 443.19 1.89022 439.855 0.378435L438.204 4.02156ZM444.503 6.51613L435.923 13.3561L438.416 16.4839L446.996 9.64387L444.503 6.51613ZM438.884 13.891C437.75 11.9996 436.231 10.5188 434.338 9.49906L432.441 13.0209C433.667 13.6812 434.669 14.6404 435.454 15.949L438.884 13.891ZM434.357 9.50951C432.482 8.47341 430.314 8 427.929 8V12C429.785 12 431.257 12.3666 432.422 13.0105L434.357 9.50951ZM427.929 8C425.65 8 423.518 8.40327 421.562 9.24171L423.137 12.9183C424.541 12.3167 426.129 12 427.929 12V8ZM421.545 9.24871C419.65 10.081 417.999 11.2662 416.609 12.7947L419.569 15.4853C420.58 14.3738 421.769 13.519 423.153 12.9113L421.545 9.24871ZM416.609 12.7947C415.219 14.3243 414.167 16.1182 413.445 18.15L417.214 19.49C417.771 17.9218 418.56 16.5957 419.569 15.4853L416.609 12.7947ZM413.45 18.1365C412.722 20.1385 412.369 22.2926 412.369 24.58H416.369C416.369 22.7074 416.657 21.0215 417.209 19.5035L413.45 18.1365ZM412.369 24.58C412.369 26.7513 412.834 28.7544 413.821 30.5313L417.318 28.5887C416.705 27.4856 416.369 26.1687 416.369 24.58H412.369ZM413.854 30.589C414.893 32.3197 416.351 33.6686 418.178 34.6298L420.041 31.0902C418.827 30.4514 417.926 29.6003 417.284 28.531L413.854 30.589ZM418.233 34.658C420.12 35.5771 422.272 36 424.629 36V32C422.747 32 421.219 31.6629 419.985 31.062L418.233 34.658ZM424.629 36C426.788 36 428.863 35.5619 430.838 34.6894L429.221 31.0306C427.756 31.6781 426.231 32 424.629 32V36ZM430.822 34.6961C432.907 33.7959 434.764 32.3524 436.405 30.4445L433.373 27.8355C432.055 29.3676 430.672 30.4041 429.237 31.0239L430.822 34.6961ZM433.487 30.5664L440.507 37.4664L443.311 34.6136L436.291 27.7136L433.487 30.5664ZM440.371 34.7618C438.202 37.3721 435.752 39.1734 433.023 40.2364L434.475 43.9636C437.907 42.6266 440.897 40.3879 443.448 37.3182L440.371 34.7618ZM433.044 40.2283C430.219 41.2923 427.042 41.84 423.489 41.84V45.84C427.456 45.84 431.119 45.2277 434.454 43.9717L433.044 40.2283ZM460.886 17.26V15.26H459.24L458.924 16.8754L460.886 17.26ZM480.386 17.26L482.349 17.6446L482.816 15.26H480.386V17.26ZM478.646 26.14V28.14H480.292L480.609 26.5246L478.646 26.14ZM459.146 26.14L457.184 25.7554L456.716 28.14H459.146V26.14ZM458.426 33.82L456.464 33.4316L455.991 35.82H458.426V33.82ZM480.446 33.82L482.404 34.2294L482.908 31.82H480.446V33.82ZM478.526 43V45H480.151L480.484 43.4094L478.526 43ZM444.866 43L442.905 42.6078L442.427 45H444.866V43ZM453.266 0.999997V-1H451.627L451.305 0.607765L453.266 0.999997ZM486.146 0.999997L488.106 1.39716L488.592 -1H486.146V0.999997ZM484.286 10.18V12.18H485.922L486.246 10.5772L484.286 10.18ZM463.106 10.18V8.18H461.463L461.144 9.7916L463.106 10.18ZM460.886 19.26H480.386V15.26H460.886V19.26ZM478.424 16.8754L476.684 25.7554L480.609 26.5246L482.349 17.6446L478.424 16.8754ZM478.646 24.14H459.146V28.14H478.646V24.14ZM461.109 26.5246L462.849 17.6446L458.924 16.8754L457.184 25.7554L461.109 26.5246ZM458.426 35.82H480.446V31.82H458.426V35.82ZM478.489 33.4106L476.569 42.5906L480.484 43.4094L482.404 34.2294L478.489 33.4106ZM478.526 41H444.866V45H478.526V41ZM446.827 43.3922L455.227 1.39223L451.305 0.607765L442.905 42.6078L446.827 43.3922ZM453.266 3H486.146V-1H453.266V3ZM484.186 0.602839L482.326 9.78284L486.246 10.5772L488.106 1.39716L484.186 0.602839ZM484.286 8.18H463.106V12.18H484.286V8.18ZM461.144 9.7916L456.464 33.4316L460.388 34.2084L465.068 10.5684L461.144 9.7916Z" fill="white"/>
</svg>
